<svg viewBox="0 0 1400 2000" xmlns="http://www.w3.org/2000/svg">
  <defs>
    <linearGradient id="headerGrad" x1="0%" y1="0%" x2="100%" y2="0%">
      <stop offset="0%" style="stop-color:#2c3e50;stop-opacity:1" />
      <stop offset="100%" style="stop-color:#34495e;stop-opacity:1" />
    </linearGradient>
    <linearGradient id="navGrad" x1="0%" y1="0%" x2="100%" y2="0%">
      <stop offset="0%" style="stop-color:#3498db;stop-opacity:1" />
      <stop offset="100%" style="stop-color:#2980b9;stop-opacity:1" />
    </linearGradient>
    <filter id="shadow" x="-20%" y="-20%" width="140%" height="140%">
      <feDropShadow dx="2" dy="2" stdDeviation="3" flood-color="#00000020"/>
    </filter>
  </defs>

  <!-- Background -->
  <rect width="1400" height="2000" fill="#f8f9fa"/>

  <!-- Header -->
  <rect x="0" y="0" width="1400" height="80" fill="url(#headerGrad)"/>
  <text x="700" y="30" text-anchor="middle" fill="white" font-size="18" font-weight="bold" font-family="Arial">SOX COMPLIANCE DASHBOARD - MAIN WIREFRAME</text>
  <text x="700" y="55" text-anchor="middle" fill="white" font-size="12" font-family="Arial">Cradle-to-Grave Process Management System</text>

  <!-- Navigation Bar -->
  <rect x="0" y="80" width="1400" height="60" fill="url(#navGrad)" filter="url(#shadow)"/>
  
  <!-- Navigation Items -->
  <rect x="20" y="90" width="100" height="40" rx="5" fill="rgba(255,255,255,0.2)" stroke="white" stroke-width="1"/>
  <text x="70" y="115" text-anchor="middle" fill="white" font-size="10" font-weight="bold" font-family="Arial">OVERVIEW</text>
  
  <rect x="140" y="90" width="100" height="40" rx="5" fill="rgba(255,255,255,0.1)" stroke="white" stroke-width="1"/>
  <text x="190" y="115" text-anchor="middle" fill="white" font-size="10" font-family="Arial">PLANNING</text>
  
  <rect x="260" y="90" width="120" height="40" rx="5" fill="rgba(255,255,255,0.1)" stroke="white" stroke-width="1"/>
  <text x="320" y="115" text-anchor="middle" fill="white" font-size="10" font-family="Arial">FOUNDATION</text>
  
  <rect x="400" y="90" width="120" height="40" rx="5" fill="rgba(255,255,255,0.1)" stroke="white" stroke-width="1"/>
  <text x="460" y="115" text-anchor="middle" fill="white" font-size="10" font-family="Arial">EXECUTION</text>
  
  <rect x="540" y="90" width="100" height="40" rx="5" fill="rgba(255,255,255,0.1)" stroke="white" stroke-width="1"/>
  <text x="590" y="115" text-anchor="middle" fill="white" font-size="10" font-family="Arial">OPTIMIZE</text>
  
  <rect x="660" y="90" width="100" height="40" rx="5" fill="rgba(255,255,255,0.1)" stroke="white" stroke-width="1"/>
  <text x="710" y="115" text-anchor="middle" fill="white" font-size="10" font-family="Arial">SCALING</text>
  
  <rect x="780" y="90" width="100" height="40" rx="5" fill="rgba(255,255,255,0.1)" stroke="white" stroke-width="1"/>
  <text x="830" y="115" text-anchor="middle" fill="white" font-size="10" font-family="Arial">TEMPLATES</text>
  
  <!-- User Profile -->
  <rect x="1200" y="90" width="180" height="40" rx="5" fill="rgba(255,255,255,0.2)" stroke="white" stroke-width="1"/>
  <circle cx="1220" cy="110" r="12" fill="white"/>
  <text x="1245" y="115" fill="white" font-size="10" font-family="Arial">John Smith (Executive)</text>

  <!-- Main Content Area -->
  
  <!-- Progress Timeline Section -->
  <rect x="20" y="160" width="1360" height="200" rx="8" fill="white" stroke="#ddd" stroke-width="2" filter="url(#shadow)"/>
  <text x="700" y="190" text-anchor="middle" fill="#2c3e50" font-size="16" font-weight="bold" font-family="Arial">SOX IMPLEMENTATION TIMELINE</text>
  
  <!-- Timeline Progress Bar -->
  <rect x="50" y="210" width="1300" height="30" rx="15" fill="#ecf0f1" stroke="#bdc3c7"/>
  <rect x="50" y="210" width="520" height="30" rx="15" fill="#27ae60"/>
  <text x="700" y="230" text-anchor="middle" fill="white" font-size="12" font-weight="bold" font-family="Arial">40% Complete - Foundation Phase</text>
  
  <!-- Timeline Milestones -->
  <circle cx="100" cy="225" r="8" fill="#27ae60"/>
  <text x="100" y="265" text-anchor="middle" fill="#2c3e50" font-size="9" font-family="Arial">Planning</text>
  <text x="100" y="280" text-anchor="middle" fill="#27ae60" font-size="8" font-family="Arial">✓ Complete</text>
  
  <circle cx="350" cy="225" r="8" fill="#f39c12"/>
  <text x="350" y="265" text-anchor="middle" fill="#2c3e50" font-size="9" font-family="Arial">Foundation</text>
  <text x="350" y="280" text-anchor="middle" fill="#f39c12" font-size="8" font-family="Arial">In Progress</text>
  
  <circle cx="600" cy="225" r="8" fill="#95a5a6"/>
  <text x="600" y="265" text-anchor="middle" fill="#2c3e50" font-size="9" font-family="Arial">Execution</text>
  <text x="600" y="280" text-anchor="middle" fill="#95a5a6" font-size="8" font-family="Arial">Pending</text>
  
  <circle cx="850" cy="225" r="8" fill="#95a5a6"/>
  <text x="850" y="265" text-anchor="middle" fill="#2c3e50" font-size="9" font-family="Arial">Optimize</text>
  <text x="850" y="280" text-anchor="middle" fill="#95a5a6" font-size="8" font-family="Arial">Pending</text>
  
  <circle cx="1100" cy="225" r="8" fill="#95a5a6"/>
  <text x="1100" y="265" text-anchor="middle" fill="#2c3e50" font-size="9" font-family="Arial">Scaling</text>
  <text x="1100" y="280" text-anchor="middle" fill="#95a5a6" font-size="8" font-family="Arial">Pending</text>

  <!-- Executive Dashboard Cards -->
  
  <!-- Card 1: Key Metrics -->
  <rect x="20" y="380" width="420" height="200" rx="8" fill="white" stroke="#ddd" stroke-width="2" filter="url(#shadow)"/>
  <rect x="20" y="380" width="420" height="40" rx="8" fill="#3498db"/>
  <text x="230" y="405" text-anchor="middle" fill="white" font-size="14" font-weight="bold" font-family="Arial">KEY METRICS</text>
  
  <!-- Metrics Content -->
  <text x="40" y="445" fill="#2c3e50" font-size="11" font-weight="bold" font-family="Arial">Budget Status:</text>
  <text x="40" y="465" fill="#27ae60" font-size="18" font-weight="bold" font-family="Arial">$1.2M / $1.5M</text>
  <text x="40" y="485" fill="#7f8c8d" font-size="10" font-family="Arial">80% utilized, on track</text>
  
  <text x="40" y="515" fill="#2c3e50" font-size="11" font-weight="bold" font-family="Arial">Timeline:</text>
  <text x="40" y="535" fill="#f39c12" font-size="18" font-weight="bold" font-family="Arial">Week 28 / 72</text>
  <text x="40" y="555" fill="#7f8c8d" font-size="10" font-family="Arial">39% complete, 2 weeks behind</text>
  
  <!-- Risk Indicator -->
  <circle cx="350" cy="485" r="25" fill="#f39c12"/>
  <text x="350" y="490" text-anchor="middle" fill="white" font-size="12" font-weight="bold" font-family="Arial">MED</text>
  <text x="350" y="520" text-anchor="middle" fill="#2c3e50" font-size="10" font-family="Arial">Risk Level</text>

  <!-- Card 2: Current Phase Details -->
  <rect x="460" y="380" width="460" height="200" rx="8" fill="white" stroke="#ddd" stroke-width="2" filter="url(#shadow)"/>
  <rect x="460" y="380" width="460" height="40" rx="8" fill="#27ae60"/>
  <text x="690" y="405" text-anchor="middle" fill="white" font-size="14" font-weight="bold" font-family="Arial">CURRENT PHASE: FOUNDATION</text>
  
  <!-- Phase Details -->
  <text x="480" y="445" fill="#2c3e50" font-size="11" font-weight="bold" font-family="Arial">Layer 2: Business Configuration</text>
  <rect x="480" y="455" width="400" height="8" rx="4" fill="#ecf0f1"/>
  <rect x="480" y="455" width="280" height="8" rx="4" fill="#27ae60"/>
  <text x="880" y="463" text-anchor="end" fill="#27ae60" font-size="9" font-family="Arial">70%</text>
  
  <text x="480" y="485" fill="#2c3e50" font-size="10" font-family="Arial">• Control library creation: 35/47 controls complete</text>
  <text x="480" y="505" fill="#2c3e50" font-size="10" font-family="Arial">• AI template generation: Learning from patterns</text>
  <text x="480" y="525" fill="#2c3e50" font-size="10" font-family="Arial">• User training: 28/47 users certified</text>
  
  <text x="480" y="555" fill="#e74c3c" font-size="10" font-weight="bold" font-family="Arial">⚠ Attention Required:</text>
  <text x="480" y="570" fill="#2c3e50" font-size="9" font-family="Arial">SAP integration 2 weeks behind schedule</text>

  <!-- Card 3: Team Status -->
  <rect x="940" y="380" width="440" height="200" rx="8" fill="white" stroke="#ddd" stroke-width="2" filter="url(#shadow)"/>
  <rect x="940" y="380" width="440" height="40" rx="8" fill="#9b59b6"/>
  <text x="1160" y="405" text-anchor="middle" fill="white" font-size="14" font-weight="bold" font-family="Arial">TEAM STATUS</text>
  
  <!-- Team Members -->
  <circle cx="970" cy="450" r="15" fill="#27ae60"/>
  <text x="970" y="455" text-anchor="middle" fill="white" font-size="8" font-weight="bold" font-family="Arial">JS</text>
  <text x="970" y="480" text-anchor="middle" fill="#2c3e50" font-size="9" font-family="Arial">John Smith</text>
  <text x="970" y="495" text-anchor="middle" fill="#27ae60" font-size="8" font-family="Arial">Available</text>
  
  <circle cx="1050" cy="450" r="15" fill="#f39c12"/>
  <text x="1050" y="455" text-anchor="middle" fill="white" font-size="8" font-weight="bold" font-family="Arial">MD</text>
  <text x="1050" y="480" text-anchor="middle" fill="#2c3e50" font-size="9" font-family="Arial">Mary Davis</text>
  <text x="1050" y="495" text-anchor="middle" fill="#f39c12" font-size="8" font-family="Arial">Busy</text>
  
  <circle cx="1130" cy="450" r="15" fill="#e74c3c"/>
  <text x="1130" y="455" text-anchor="middle" fill="white" font-size="8" font-weight="bold" font-family="Arial">RJ</text>
  <text x="1130" y="480" text-anchor="middle" fill="#2c3e50" font-size="9" font-family="Arial">Robert Jones</text>
  <text x="1130" y="495" text-anchor="middle" fill="#e74c3c" font-size="8" font-family="Arial">Overloaded</text>
  
  <circle cx="1210" cy="450" r="15" fill="#3498db"/>
  <text x="1210" y="455" text-anchor="middle" fill="white" font-size="8" font-weight="bold" font-family="Arial">SK</text>
  <text x="1210" y="480" text-anchor="middle" fill="#2c3e50" font-size="9" font-family="Arial">Sarah Kim</text>
  <text x="1210" y="495" text-anchor="middle" fill="#3498db" font-size="8" font-family="Arial">Training</text>
  
  <!-- Team Summary -->
  <text x="960" y="530" fill="#2c3e50" font-size="11" font-weight="bold" font-family="Arial">Team Utilization:</text>
  <rect x="960" y="540" width="200" height="12" rx="6" fill="#ecf0f1"/>
  <rect x="960" y="540" width="160" height="12" rx="6" fill="#f39c12"/>
  <text x="1170" y="550" fill="#f39c12" font-size="10" font-family="Arial">80% (High)</text>
  
  <text x="960" y="570" fill="#2c3e50" font-size="10" font-family="Arial">Recommendation: Add 1 analyst for Q4</text>

  <!-- Detailed Sections -->
  
  <!-- Section: Process Flow Diagram -->
  <rect x="20" y="600" width="1360" height="300" rx="8" fill="white" stroke="#ddd" stroke-width="2" filter="url(#shadow)"/>
  <rect x="20" y="600" width="1360" height="40" rx="8" fill="#34495e"/>
  <text x="700" y="625" text-anchor="middle" fill="white" font-size="14" font-weight="bold" font-family="Arial">DETAILED PROCESS FLOW - FOUNDATION PHASE</text>
  
  <!-- Layer Visualization -->
  <rect x="50" y="660" width="300" height="80" rx="5" fill="#e74c3c" fill-opacity="0.2" stroke="#e74c3c" stroke-width="2"/>
  <text x="200" y="685" text-anchor="middle" fill="#e74c3c" font-size="11" font-weight="bold" font-family="Arial">LAYER 1: INFRASTRUCTURE</text>
  <text x="200" y="705" text-anchor="middle" fill="#2c3e50" font-size="9" font-family="Arial">Azure, PostgreSQL, Rust WebSocket</text>
  <text x="200" y="720" text-anchor="middle" fill="#27ae60" font-size="9" font-weight="bold" font-family="Arial">✓ COMPLETE</text>
  
  <rect x="370" y="660" width="300" height="80" rx="5" fill="#f39c12" fill-opacity="0.2" stroke="#f39c12" stroke-width="2"/>
  <text x="520" y="685" text-anchor="middle" fill="#f39c12" font-size="11" font-weight="bold" font-family="Arial">LAYER 2: BUSINESS CONFIG</text>
  <text x="520" y="705" text-anchor="middle" fill="#2c3e50" font-size="9" font-family="Arial">Controls, Processes, Templates</text>
  <text x="520" y="720" text-anchor="middle" fill="#f39c12" font-size="9" font-weight="bold" font-family="Arial">⚠ 70% COMPLETE</text>
  
  <rect x="690" y="660" width="300" height="80" rx="5" fill="#95a5a6" fill-opacity="0.2" stroke="#95a5a6" stroke-width="2"/>
  <text x="840" y="685" text-anchor="middle" fill="#95a5a6" font-size="11" font-weight="bold" font-family="Arial">LAYER 3: USER TRAINING</text>
  <text x="840" y="705" text-anchor="middle" fill="#2c3e50" font-size="9" font-family="Arial">Onboarding, Documentation</text>
  <text x="840" y="720" text-anchor="middle" fill="#95a5a6" font-size="9" font-weight="bold" font-family="Arial">○ PENDING</text>
  
  <rect x="1010" y="660" width="300" height="80" rx="5" fill="#95a5a6" fill-opacity="0.2" stroke="#95a5a6" stroke-width="2"/>
  <text x="1160" y="685" text-anchor="middle" fill="#95a5a6" font-size="11" font-weight="bold" font-family="Arial">LAYER 4: TESTING</text>
  <text x="1160" y="705" text-anchor="middle" fill="#2c3e50" font-size="9" font-family="Arial">Validation, Audit Prep</text>
  <text x="1160" y="720" text-anchor="middle" fill="#95a5a6" font-size="9" font-weight="bold" font-family="Arial">○ PENDING</text>
  
  <!-- Connection Arrows -->
  <path d="M 350 700 L 370 700" stroke="#2c3e50" stroke-width="2" marker-end="url(#arrowhead)"/>
  <path d="M 670 700 L 690 700" stroke="#2c3e50" stroke-width="2" marker-end="url(#arrowhead)"/>
  <path d="M 990 700 L 1010 700" stroke="#2c3e50" stroke-width="2" marker-end="url(#arrowhead)"/>
  
  <!-- Current Focus Area -->
  <rect x="370" y="760" width="300" height="120" rx="5" fill="#fff3cd" stroke="#ffc107" stroke-width="2"/>
  <text x="520" y="780" text-anchor="middle" fill="#856404" font-size="12" font-weight="bold" font-family="Arial">CURRENT FOCUS: CONTROL LIBRARY</text>
  
  <text x="390" y="805" fill="#2c3e50" font-size="10" font-family="Arial">Controls Completed: 35/47 (74%)</text>
  <rect x="390" y="815" width="260" height="8" rx="4" fill="#ecf0f1"/>
  <rect x="390" y="815" width="192" height="8" rx="4" fill="#27ae60"/>
  
  <text x="390" y="840" fill="#2c3e50" font-size="10" font-family="Arial">AI Templates Generated: 23</text>
  <text x="390" y="855" fill="#2c3e50" font-size="10" font-family="Arial">Business Rules Captured: 156</text>
  <text x="390" y="870" fill="#e74c3c" font-size="9" font-family="Arial">Bottleneck: SAP integration delays</text>

  <!-- Action Items Panel -->
  <rect x="20" y="920" width="660" height="200" rx="8" fill="white" stroke="#ddd" stroke-width="2" filter="url(#shadow)"/>
  <rect x="20" y="920" width="660" height="40" rx="8" fill="#e74c3c"/>
  <text x="350" y="945" text-anchor="middle" fill="white" font-size="14" font-weight="bold" font-family="Arial">ACTION ITEMS &amp; ALERTS</text>
  
  <!-- High Priority Items -->
  <circle cx="50" cy="980" r="8" fill="#e74c3c"/>
  <text x="70" y="985" fill="#2c3e50" font-size="11" font-weight="bold" font-family="Arial">HIGH: SAP Integration Behind Schedule</text>
  <text x="70" y="1000" fill="#7f8c8d" font-size="9" font-family="Arial">Owner: IT Team | Due: Week 30 | Impact: 2-week delay</text>
  
  <circle cx="50" cy="1020" r="8" fill="#f39c12"/>
  <text x="70" y="1025" fill="#2c3e50" font-size="11" font-weight="bold" font-family="Arial">MED: Additional Analyst Needed</text>
  <text x="70" y="1040" fill="#7f8c8d" font-size="9" font-family="Arial">Owner: HR | Due: Week 32 | Impact: Resource constraint</text>
  
  <circle cx="50" cy="1060" r="8" fill="#27ae60"/>
  <text x="70" y="1065" fill="#2c3e50" font-size="11" font-weight="bold" font-family="Arial">LOW: Template Documentation Update</text>
  <text x="70" y="1080" fill="#7f8c8d" font-size="9" font-family="Arial">Owner: Documentation Team | Due: Week 35</text>
  
  <circle cx="50" cy="1100" r="8" fill="#3498db"/>
  <text x="70" y="1105" fill="#2c3e50" font-size="11" font-weight="bold" font-family="Arial">INFO: Q3 Planning Session Scheduled</text>
  <text x="70" y="1120" fill="#7f8c8d" font-size="9" font-family="Arial">Date: Next Friday | Attendees: Leadership Team</text>

  <!-- Resource Allocation Panel -->
  <rect x="700" y="920" width="680" height="200" rx="8" fill="white" stroke="#ddd" stroke-width="2" filter="url(#shadow)"/>
  <rect x="700" y="920" width="680" height="40" rx="8" fill="#9b59b6"/>
  <text x="1040" y="945" text-anchor="middle" fill="white" font-size="14" font-weight="bold" font-family="Arial">RESOURCE ALLOCATION &amp; PLANNING</text>
  
  <!-- Resource Chart -->
  <text x="720" y="975" fill="#2c3e50" font-size="11" font-weight="bold" font-family="Arial">Current Quarter Allocation:</text>
  
  <!-- Resource Bars -->
  <text x="720" y="1000" fill="#2c3e50" font-size="10" font-family="Arial">Technical Team:</text>
  <rect x="820" y="990" width="200" height="12" rx="6" fill="#ecf0f1"/>
  <rect x="820" y="990" width="160" height="12" rx="6" fill="#e74c3c"/>
  <text x="1030" y="1000" fill="#e74c3c" font-size="9" font-family="Arial">80% (Overloaded)</text>
  
  <text x="720" y="1025" fill="#2c3e50" font-size="10" font-family="Arial">Business Team:</text>
  <rect x="820" y="1015" width="200" height="12" rx="6" fill="#ecf0f1"/>
  <rect x="820" y="1015" width="140" height="12" rx="6" fill="#f39c12"/>
  <text x="1030" y="1025" fill="#f39c12" font-size="9" font-family="Arial">70% (High)</text>
  
  <text x="720" y="1050" fill="#2c3e50" font-size="10" font-family="Arial">Audit Team:</text>
  <rect x="820" y="1040" width="200" height="12" rx="6" fill="#ecf0f1"/>
  <rect x="820" y="1040" width="100" height="12" rx="6" fill="#27ae60"/>
  <text x="1030" y="1050" fill="#27ae60" font-size="9" font-family="Arial">50% (Optimal)</text>
  
  <!-- Next Quarter Projection -->
  <text x="1100" y="975" fill="#2c3e50" font-size="11" font-weight="bold" font-family="Arial">Next Quarter Needs:</text>
  <text x="1100" y="995" fill="#2c3e50" font-size="9" font-family="Arial">• +1 Senior Analyst</text>
  <text x="1100" y="1010" fill="#2c3e50" font-size="9" font-family="Arial">• External SAP Consultant</text>
  <text x="1100" y="1025" fill="#2c3e50" font-size="9" font-family="Arial">• Training Specialist</text>
  
  <text x="720" y="1085" fill="#2c3e50" font-size="10" font-weight="bold" font-family="Arial">Budget Impact:</text>
  <text x="720" y="1105" fill="#27ae60" font-size="12" font-weight="bold" font-family="Arial">+$180K</text>
  <text x="790" y="1105" fill="#7f8c8d" font-size="9" font-family="Arial">Still within approved budget</text>

  <!-- Mobile Navigation Indicator -->
  <rect x="20" y="1140" width="1360" height="60" rx="8" fill="#f8f9fa" stroke="#ddd" stroke-width="2"/>
  <text x="700" y="1165" text-anchor="middle" fill="#2c3e50" font-size="12" font-weight="bold" font-family="Arial">MOBILE-RESPONSIVE DESIGN NOTES</text>
  <text x="40" y="1185" fill="#7f8c8d" font-size="10" font-family="Arial">• Collapsible navigation for tablets/phones • Touch-friendly buttons • Swipe gestures for timeline • Progressive disclosure of details</text>

  <!-- Footer Actions -->
  <rect x="20" y="1220" width="1360" height="80" rx="8" fill="white" stroke="#ddd" stroke-width="2" filter="url(#shadow)"/>
  
  <!-- Action Buttons -->
  <rect x="50" y="1240" width="150" height="40" rx="5" fill="#3498db" stroke="#2980b9"/>
  <text x="125" y="1265" text-anchor="middle" fill="white" font-size="11" font-weight="bold" font-family="Arial">DRILL DOWN</text>
  
  <rect x="220" y="1240" width="150" height="40" rx="5" fill="#27ae60" stroke="#229954"/>
  <text x="295" y="1265" text-anchor="middle" fill="white" font-size="11" font-weight="bold" font-family="Arial">EXPORT REPORT</text>
  
  <rect x="390" y="1240" width="150" height="40" rx="5" fill="#f39c12" stroke="#e67e22"/>
  <text x="465" y="1265" text-anchor="middle" fill="white" font-size="11" font-weight="bold" font-family="Arial">SCHEDULE MEETING</text>
  
  <rect x="560" y="1240" width="150" height="40" rx="5" fill="#9b59b6" stroke="#8e44ad"/>
  <text x="635" y="1265" text-anchor="middle" fill="white" font-size="11" font-weight="bold" font-family="Arial">AI INSIGHTS</text>
  
  <!-- Quick Stats -->
  <text x="900" y="1250" fill="#2c3e50" font-size="10" font-weight="bold" font-family="Arial">Quick Stats:</text>
  <text x="900" y="1265" fill="#27ae60" font-size="9" font-family="Arial">• 127 tasks completed this week</text>
  <text x="900" y="1280" fill="#3498db" font-size="9" font-family="Arial">• 23 AI recommendations generated</text>
  
  <text x="1150" y="1250" fill="#2c3e50" font-size="10" font-weight="bold" font-family="Arial">System Status:</text>
  <circle cx="1160" cy="1270" r="5" fill="#27ae60"/>
  <text x="1175" y="1275" fill="#27ae60" font-size="9" font-family="Arial">All systems operational</text>

  <!-- Legend -->
  <rect x="20" y="1320" width="1360" height="100" rx="8" fill="#f8f9fa" stroke="#ddd" stroke-width="2"/>
  <text x="700" y="1345" text-anchor="middle" fill="#2c3e50" font-size="12" font-weight="bold" font-family="Arial">WIREFRAME LEGEND</text>
  
  <circle cx="50" cy="1365" r="8" fill="#27ae60"/>
  <text x="70" y="1370" fill="#2c3e50" font-size="10" font-family="Arial">Complete/On Track</text>
  
  <circle cx="200" cy="1365" r="8" fill="#f39c12"/>
  <text x="220" y="1370" fill="#2c3e50" font-size="10" font-family="Arial">In Progress/Warning</text>
  
  <circle cx="370" cy="1365" r="8" fill="#e74c3c"/>
  <text x="390" y="1370" fill="#2c3e50" font-size="10" font-family="Arial">Behind/Critical</text>
  
  <circle cx="520" cy="1365" r="8" fill="#95a5a6"/>
  <text x="540" y="1370" fill="#2c3e50" font-size="10" font-family="Arial">Pending/Not Started</text>
  
  <circle cx="670" cy="1365" r="8" fill="#3498db"/>
  <text x="690" y="1370" fill="#2c3e50" font-size="10" font-family="Arial">Information/Training</text>
  
  <text x="50" y="1395" fill="#2c3e50" font-size="10" font-family="Arial">Interactive Elements: All buttons, progress bars, and cards are clickable for drill-down details</text>
  <text x="50" y="1410" fill="#7f8c8d" font-size="9" font-family="Arial">Real-time Updates: Dashboard refreshes every 30 seconds with live data from backend systems</text>

  <!-- Arrow Markers -->
  <defs>
    <marker id="arrowhead" markerWidth="10" markerHeight="7" refX="9" refY="3.5" orient="auto">
      <polygon points="0 0, 10 3.5, 0 7" fill="#2c3e50" />
    </marker>
  </defs>

</svg>