<svg viewBox="0 0 1600 1000" xmlns="http://www.w3.org/2000/svg">
  <defs>
    <linearGradient id="headerGrad" x1="0%" y1="0%" x2="100%" y2="0%">
      <stop offset="0%" style="stop-color:#1976D2;stop-opacity:1" />
      <stop offset="100%" style="stop-color:#1565C0;stop-opacity:1" />
    </linearGradient>
    <linearGradient id="conflictGrad" x1="0%" y1="0%" x2="100%" y2="0%">
      <stop offset="0%" style="stop-color:#F44336;stop-opacity:1" />
      <stop offset="100%" style="stop-color:#D32F2F;stop-opacity:1" />
    </linearGradient>
    <linearGradient id="approvedGrad" x1="0%" y1="0%" x2="100%" y2="0%">
      <stop offset="0%" style="stop-color:#4CAF50;stop-opacity:1" />
      <stop offset="100%" style="stop-color:#388E3C;stop-opacity:1" />
    </linearGradient>
    <filter id="shadow" x="-20%" y="-20%" width="140%" height="140%">
      <feDropShadow dx="2" dy="2" stdDeviation="3" flood-color="#00000020"/>
    </filter>
  </defs>

  <!-- Background -->
  <rect width="1600" height="1000" fill="#f5f5f5"/>

  <!-- Header Bar -->
  <rect x="0" y="0" width="1600" height="60" fill="url(#headerGrad)"/>
  <text x="30" y="35" fill="white" font-size="18" font-weight="bold" font-family="Arial">SOX Data Import Review Dashboard</text>
  <text x="1400" y="35" fill="white" font-size="14" font-family="Arial">Reviewer: Jane Smith</text>

  <!-- Navigation Tabs -->
  <rect x="0" y="60" width="1600" height="40" fill="#e0e0e0"/>
  <rect x="0" y="60" width="150" height="40" fill="#2196F3"/>
  <text x="75" y="82" text-anchor="middle" fill="white" font-size="12" font-weight="bold" font-family="Arial">Pending Review</text>
  <rect x="150" y="60" width="150" height="40" fill="#e0e0e0"/>
  <text x="225" y="82" text-anchor="middle" fill="#666" font-size="12" font-family="Arial">Approved</text>
  <rect x="300" y="60" width="150" height="40" fill="#e0e0e0"/>
  <text x="375" y="82" text-anchor="middle" fill="#666" font-size="12" font-family="Arial">Rejected</text>

  <!-- Import Session Summary -->
  <rect x="20" y="120" width="1560" height="80" rx="8" fill="white" stroke="#ddd" stroke-width="1" filter="url(#shadow)"/>
  <text x="40" y="145" fill="#333" font-size="16" font-weight="bold" font-family="Arial">Import Session: T01_Organization_2024-01-15_14:30</text>
  <text x="40" y="165" fill="#666" font-size="12" font-family="Arial">Uploaded by: user_a@company.com | File: organization_setup.xlsx | Records: 25 | Conflicts: 3</text>
  
  <!-- Action Buttons -->
  <rect x="1200" y="135" width="100" height="30" rx="5" fill="#4CAF50" stroke="#45a049" stroke-width="1"/>
  <text x="1250" y="153" text-anchor="middle" fill="white" font-size="12" font-weight="bold" font-family="Arial">Approve All</text>
  
  <rect x="1320" y="135" width="100" height="30" rx="5" fill="#F44336" stroke="#D32F2F" stroke-width="1"/>
  <text x="1370" y="153" text-anchor="middle" fill="white" font-size="12" font-weight="bold" font-family="Arial">Reject All</text>
  
  <rect x="1440" y="135" width="120" height="30" rx="5" fill="#FF9800" stroke="#F57C00" stroke-width="1"/>
  <text x="1500" y="153" text-anchor="middle" fill="white" font-size="12" font-weight="bold" font-family="Arial">Bulk Actions ▼</text>

  <!-- Filter Bar -->
  <rect x="20" y="220" width="1560" height="40" rx="5" fill="white" stroke="#ddd" stroke-width="1"/>
  <text x="40" y="242" fill="#333" font-size="12" font-weight="bold" font-family="Arial">Filters:</text>
  
  <rect x="100" y="230" width="80" height="20" rx="3" fill="#FFEBEE" stroke="#F44336" stroke-width="1"/>
  <text x="140" y="242" text-anchor="middle" fill="#F44336" font-size="10" font-weight="bold" font-family="Arial">Conflicts Only</text>
  
  <rect x="200" y="230" width="80" height="20" rx="3" fill="#E8F5E9" stroke="#4CAF50" stroke-width="1"/>
  <text x="240" y="242" text-anchor="middle" fill="#4CAF50" font-size="10" font-weight="bold" font-family="Arial">Auto-Approved</text>
  
  <rect x="300" y="230" width="100" height="20" rx="3" fill="#E3F2FD" stroke="#2196F3" stroke-width="1"/>
  <text x="350" y="242" text-anchor="middle" fill="#2196F3" font-size="10" font-weight="bold" font-family="Arial">Needs Review</text>

  <!-- Data Review Grid -->
  <rect x="20" y="280" width="1560" height="600" rx="8" fill="white" stroke="#ddd" stroke-width="1" filter="url(#shadow)"/>
  
  <!-- Grid Header -->
  <rect x="20" y="280" width="1560" height="40" rx="8" fill="#f8f9fa" stroke="#ddd" stroke-width="1"/>
  <text x="40" y="302" fill="#333" font-size="12" font-weight="bold" font-family="Arial">Record</text>
  <text x="120" y="302" fill="#333" font-size="12" font-weight="bold" font-family="Arial">Field</text>
  <text x="300" y="302" fill="#333" font-size="12" font-weight="bold" font-family="Arial">Existing Value</text>
  <text x="600" y="302" fill="#333" font-size="12" font-weight="bold" font-family="Arial">Proposed Value (User A)</text>
  <text x="900" y="302" fill="#333" font-size="12" font-weight="bold" font-family="Arial">Proposed Value (User B)</text>
  <text x="1200" y="302" fill="#333" font-size="12" font-weight="bold" font-family="Arial">Resolution</text>
  <text x="1400" y="302" fill="#333" font-size="12" font-weight="bold" font-family="Arial">Actions</text>

  <!-- Row 1 - Conflict -->
  <rect x="20" y="320" width="1560" height="60" fill="#FFEBEE" stroke="#F44336" stroke-width="1"/>
  <circle cx="50" cy="350" r="8" fill="#F44336"/>
  <text x="50" y="354" text-anchor="middle" fill="white" font-size="10" font-weight="bold" font-family="Arial">!</text>
  
  <text x="80" y="340" fill="#333" font-size="11" font-weight="bold" font-family="Arial">ORG-001</text>
  <text x="80" y="355" fill="#666" font-size="10" font-family="Arial">Acme Corp</text>
  
  <text x="120" y="340" fill="#333" font-size="11" font-weight="bold" font-family="Arial">legal_name</text>
  <text x="120" y="355" fill="#666" font-size="10" font-family="Arial">varchar(255)</text>
  
  <rect x="280" y="330" width="280" height="40" rx="3" fill="white" stroke="#ddd" stroke-width="1"/>
  <text x="290" y="345" fill="#333" font-size="11" font-family="Arial">Acme Corporation Ltd.</text>
  <text x="290" y="360" fill="#666" font-size="9" font-family="Arial">Last updated: 2024-01-10 by system</text>
  
  <rect x="580" y="330" width="280" height="40" rx="3" fill="#E3F2FD" stroke="#2196F3" stroke-width="1"/>
  <text x="590" y="345" fill="#333" font-size="11" font-family="Arial">Acme Corporation Limited</text>
  <text x="590" y="360" fill="#666" font-size="9" font-family="Arial">user_a@company.com - 2024-01-15 14:30</text>
  
  <rect x="880" y="330" width="280" height="40" rx="3" fill="#FFF3E0" stroke="#FF9800" stroke-width="1"/>
  <text x="890" y="345" fill="#333" font-size="11" font-family="Arial">Acme Corp International Inc.</text>
  <text x="890" y="360" fill="#666" font-size="9" font-family="Arial">user_b@company.com - 2024-01-15 14:45</text>
  
  <rect x="1180" y="335" width="180" height="30" rx="3" fill="white" stroke="#ddd" stroke-width="1"/>
  <select x="1190" y="345" width="160" height="20" style="background:white; border:1px solid #ddd;">
    <option>-- Select Value --</option>
    <option>Keep Existing</option>
    <option>Use User A</option>
    <option>Use User B</option>
    <option>Custom Value</option>
  </select>
  
  <rect x="1380" y="335" width="60" height="15" rx="3" fill="#4CAF50" stroke="#45a049" stroke-width="1"/>
  <text x="1410" y="344" text-anchor="middle" fill="white" font-size="9" font-weight="bold" font-family="Arial">APPROVE</text>
  <rect x="1450" y="335" width="50" height="15" rx="3" fill="#F44336" stroke="#D32F2F" stroke-width="1"/>
  <text x="1475" y="344" text-anchor="middle" fill="white" font-size="9" font-weight="bold" font-family="Arial">REJECT</text>
  <rect x="1510" y="335" width="50" height="15" rx="3" fill="#2196F3" stroke="#1976D2" stroke-width="1"/>
  <text x="1535" y="344" text-anchor="middle" fill="white" font-size="9" font-weight="bold" font-family="Arial">COMMENT</text>

  <!-- Row 2 - Auto-Approved -->
  <rect x="20" y="380" width="1560" height="60" fill="#E8F5E9" stroke="#4CAF50" stroke-width="1"/>
  <circle cx="50" cy="410" r="8" fill="#4CAF50"/>
  <text x="50" y="414" text-anchor="middle" fill="white" font-size="10" font-weight="bold" font-family="Arial">✓</text>
  
  <text x="80" y="400" fill="#333" font-size="11" font-weight="bold" font-family="Arial">ORG-002</text>
  <text x="80" y="415" fill="#666" font-size="10" font-family="Arial">Beta Industries</text>
  
  <text x="120" y="400" fill="#333" font-size="11" font-weight="bold" font-family="Arial">jurisdiction</text>
  <text x="120" y="415" fill="#666" font-size="10" font-family="Arial">varchar(100)</text>
  
  <rect x="280" y="390" width="280" height="40" rx="3" fill="white" stroke="#ddd" stroke-width="1"/>
  <text x="290" y="405" fill="#333" font-size="11" font-family="Arial">-- Empty --</text>
  <text x="290" y="420" fill="#666" font-size="9" font-family="Arial">No existing value</text>
  
  <rect x="580" y="390" width="280" height="40" rx="3" fill="#E8F5E9" stroke="#4CAF50" stroke-width="1"/>
  <text x="590" y="405" fill="#333" font-size="11" font-family="Arial">Delaware, USA</text>
  <text x="590" y="420" fill="#666" font-size="9" font-family="Arial">user_a@company.com - Auto-approved</text>
  
  <rect x="880" y="390" width="280" height="40" rx="3" fill="#f5f5f5" stroke="#ddd" stroke-width="1"/>
  <text x="890" y="405" fill="#999" font-size="11" font-style="italic" font-family="Arial">No conflict</text>
  <text x="890" y="420" fill="#999" font-size="9" font-family="Arial">Single submission</text>
  
  <rect x="1180" y="395" width="180" height="30" rx="3" fill="#E8F5E9" stroke="#4CAF50" stroke-width="1"/>
  <text x="1270" y="412" text-anchor="middle" fill="#4CAF50" font-size="11" font-weight="bold" font-family="Arial">✓ APPROVED</text>
  
  <rect x="1380" y="395" width="180" height="15" rx="3" fill="#f5f5f5" stroke="#ddd" stroke-width="1"/>
  <text x="1470" y="404" text-anchor="middle" fill="#999" font-size="9" font-family="Arial">Auto-processed</text>

  <!-- Row 3 - Field-Level Conflict -->
  <rect x="20" y="440" width="1560" height="60" fill="#FFF8E1" stroke="#FF9800" stroke-width="1"/>
  <circle cx="50" cy="470" r="8" fill="#FF9800"/>
  <text x="50" y="474" text-anchor="middle" fill="white" font-size="10" font-weight="bold" font-family="Arial">?</text>
  
  <text x="80" y="460" fill="#333" font-size="11" font-weight="bold" font-family="Arial">ORG-003</text>
  <text x="80" y="475" fill="#666" font-size="10" font-family="Arial">Gamma LLC</text>
  
  <text x="120" y="460" fill="#333" font-size="11" font-weight="bold" font-family="Arial">fiscal_year_end</text>
  <text x="120" y="475" fill="#666" font-size="10" font-family="Arial">varchar(5)</text>
  
  <rect x="280" y="450" width="280" height="40" rx="3" fill="white" stroke="#ddd" stroke-width="1"/>
  <text x="290" y="465" fill="#333" font-size="11" font-family="Arial">12-31</text>
  <text x="290" y="480" fill="#666" font-size="9" font-family="Arial">System default</text>
  
  <rect x="580" y="450" width="280" height="40" rx="3" fill="#FFF3E0" stroke="#FF9800" stroke-width="1"/>
  <text x="590" y="465" fill="#333" font-size="11" font-family="Arial">03-31</text>
  <text x="590" y="480" fill="#666" font-size="9" font-family="Arial">user_c@company.com - Needs validation</text>
  
  <rect x="880" y="450" width="280" height="40" rx="3" fill="#f5f5f5" stroke="#ddd" stroke-width="1"/>
  <text x="890" y="465" fill="#999" font-size="11" font-style="italic" font-family="Arial">No conflict</text>
  <text x="890" y="480" fill="#999" font-size="9" font-family="Arial">Single submission</text>
  
  <rect x="1180" y="455" width="180" height="30" rx="3" fill="white" stroke="#ddd" stroke-width="1"/>
  <text x="1270" y="472" text-anchor="middle" fill="#666" font-size="11" font-family="Arial">Pending Review</text>
  
  <rect x="1380" y="455" width="60" height="15" rx="3" fill="#4CAF50" stroke="#45a049" stroke-width="1"/>
  <text x="1410" y="464" text-anchor="middle" fill="white" font-size="9" font-weight="bold" font-family="Arial">APPROVE</text>
  <rect x="1450" y="455" width="50" height="15" rx="3" fill="#F44336" stroke="#D32F2F" stroke-width="1"/>
  <text x="1475" y="464" text-anchor="middle" fill="white" font-size="9" font-weight="bold" font-family="Arial">REJECT</text>
  <rect x="1510" y="455" width="50" height="15" rx="3" fill="#2196F3" stroke="#1976D2" stroke-width="1"/>
  <text x="1535" y="464" text-anchor="middle" fill="white" font-size="9" font-weight="bold" font-family="Arial">COMMENT</text>

  <!-- Comment Thread Popup -->
  <rect x="400" y="520" width="400" height="200" rx="8" fill="white" stroke="#ddd" stroke-width="2" filter="url(#shadow)"/>
  <rect x="400" y="520" width="400" height="30" rx="8" fill="#2196F3"/>
  <text x="420" y="540" fill="white" font-size="12" font-weight="bold" font-family="Arial">Comment Thread: ORG-001 / legal_name</text>
  <text x="770" y="540" fill="white" font-size="12" font-weight="bold" font-family="Arial">✕</text>
  
  <text x="420" y="570" fill="#333" font-size="11" font-weight="bold" font-family="Arial">Jane Smith (Reviewer)</text>
  <text x="420" y="585" fill="#666" font-size="10" font-family="Arial">2024-01-15 15:30</text>
  <text x="420" y="600" fill="#333" font-size="11" font-family="Arial">User A's value seems more appropriate for legal documents.</text>
  <text x="420" y="615" fill="#333" font-size="11" font-family="Arial">User B's version might be too informal. Need legal team input?</text>
  
  <rect x="420" y="640" width="360" height="25" rx="3" fill="#f5f5f5" stroke="#ddd" stroke-width="1"/>
  <text x="430" y="655" fill="#999" font-size="10" font-family="Arial">Add comment...</text>
  
  <rect x="420" y="675" width="80" height="25" rx="3" fill="#2196F3" stroke="#1976D2" stroke-width="1"/>
  <text x="460" y="690" text-anchor="middle" fill="white" font-size="11" font-weight="bold" font-family="Arial">POST</text>
  
  <rect x="510" y="675" width="80" height="25" rx="3" fill="#4CAF50" stroke="#45a049" stroke-width="1"/>
  <text x="550" y="690" text-anchor="middle" fill="white" font-size="11" font-weight="bold" font-family="Arial">RESOLVE</text>

  <!-- Side Panel - Validation Rules -->
  <rect x="820" y="520" width="350" height="300" rx="8" fill="white" stroke="#ddd" stroke-width="1" filter="url(#shadow)"/>
  <rect x="820" y="520" width="350" height="30" rx="8" fill="#FF9800"/>
  <text x="840" y="540" fill="white" font-size="12" font-weight="bold" font-family="Arial">Validation Rules  &amp; Context</text>
  
  <text x="840" y="570" fill="#333" font-size="11" font-weight="bold" font-family="Arial">Field: legal_name</text>
  <text x="840" y="590" fill="#666" font-size="10" font-family="Arial">✓ Required field</text>
  <text x="840" y="605" fill="#666" font-size="10" font-family="Arial">✓ Max length: 255 characters</text>
  <text x="840" y="620" fill="#666" font-size="10" font-family="Arial">✓ Must contain "Corp", "Ltd", "Inc", or "LLC"</text>
  <text x="840" y="635" fill="#F44336" font-size="10" font-family="Arial">⚠ Duplicate check: Similar name exists</text>
  
  <text x="840" y="665" fill="#333" font-size="11" font-weight="bold" font-family="Arial">Business Rules:</text>
  <text x="840" y="680" fill="#666" font-size="10" font-family="Arial">• Legal name must match incorporation docs</text>
  <text x="840" y="695" fill="#666" font-size="10" font-family="Arial">• Changes require legal team approval</text>
  <text x="840" y="710" fill="#666" font-size="10" font-family="Arial">• Must be unique across all entities</text>
  
  <text x="840" y="740" fill="#333" font-size="11" font-weight="bold" font-family="Arial">Related Records:</text>
  <text x="840" y="755" fill="#666" font-size="10" font-family="Arial">• 3 Business Units depend on this org</text>
  <text x="840" y="770" fill="#666" font-size="10" font-family="Arial">• 15 Financial Accounts linked</text>
  <text x="840" y="785" fill="#666" font-size="10" font-family="Arial">• 8 Active SOX processes</text>
  
  <rect x="840" y="795" width="120" height="20" rx="3" fill="#E3F2FD" stroke="#2196F3" stroke-width="1"/>
  <text x="900" y="807" text-anchor="middle" fill="#2196F3" font-size="10" font-weight="bold" font-family="Arial">View Dependencies</text>

  <!-- Progress Indicator -->
  <rect x="20" y="900" width="1560" height="60" rx="8" fill="white" stroke="#ddd" stroke-width="1" filter="url(#shadow)"/>
  <text x="40" y="925" fill="#333" font-size="14" font-weight="bold" font-family="Arial">Import Progress</text>
  
  <rect x="40" y="935" width="400" height="15" rx="7" fill="#f5f5f5" stroke="#ddd" stroke-width="1"/>
  <rect x="40" y="935" width="280" height="15" rx="7" fill="#4CAF50"/>
  <text x="460" y="946" fill="#333" font-size="11" font-family="Arial">70% Complete (17/25 records processed)</text>
  
  <text x="700" y="925" fill="#333" font-size="12" font-weight="bold" font-family="Arial">Status Summary:</text>
  <text x="700" y="940" fill="#4CAF50" font-size="11" font-family="Arial">✓ 12 Auto-approved</text>
  <text x="800" y="940" fill="#FF9800" font-size="11" font-family="Arial">○ 5 Pending review</text>
  <text x="920" y="940" fill="#F44336" font-size="11" font-family="Arial">✗ 3 Conflicts</text>
  <text x="1020" y="940" fill="#666" font-size="11" font-family="Arial">⏸ 5 Not processed</text>
  
  <rect x="1300" y="915" width="120" height="30" rx="5" fill="#4CAF50" stroke="#45a049" stroke-width="1"/>
  <text x="1360" y="933" text-anchor="middle" fill="white" font-size="12" font-weight="bold" font-family="Arial">Finalize Import</text>
  
  <rect x="1440" y="915" width="120" height="30" rx="5" fill="#F44336" stroke="#D32F2F" stroke-width="1"/>
  <text x="1500" y="933" text-anchor="middle" fill="white" font-size="12" font-weight="bold" font-family="Arial">Cancel Import</text>

</svg>
