<?xml version="1.0" encoding="UTF-8"?>
<svg viewBox="0 0 1200 1600" xmlns="http://www.w3.org/2000/svg">
  <defs>
    <style>
      .title { font-family: 'Arial Black', sans-serif; font-size: 24px; font-weight: bold; }
      .section-title { font-family: 'Arial', sans-serif; font-size: 18px; font-weight: bold; }
      .subsection { font-family: 'Arial', sans-serif; font-size: 14px; font-weight: bold; }
      .text { font-family: 'Arial', sans-serif; font-size: 12px; }
      .small { font-family: 'Arial', sans-serif; font-size: 10px; }
      .code { font-family: 'Courier New', monospace; font-size: 10px; }
      .highlight { fill: #e8f4f8; stroke: #2196F3; stroke-width: 2; }
      .portal-box { fill: #f3e5f5; stroke: #9c27b0; stroke-width: 2; }
      .api-box { fill: #e8f5e8; stroke: #4caf50; stroke-width: 2; }
      .warning-box { fill: #fff3e0; stroke: #ff9800; stroke-width: 2; }
      .success-box { fill: #e8f5e8; stroke: #4caf50; stroke-width: 2; }
      .data-box { fill: #fce4ec; stroke: #e91e63; stroke-width: 2; }
    </style>
  </defs>

  <!-- Background -->
  <rect width="1200" height="1600" fill="#fafafa"/>

  <!-- Header -->
  <rect x="0" y="0" width="1200" height="80" fill="#1976d2"/>
  <text x="600" y="45" text-anchor="middle" class="title" fill="white">🌐 Toronto Open Data Portal - Live Analysis (2025)</text>

  <!-- Portal Structure Section -->
  <rect x="20" y="100" width="560" height="450" class="portal-box" rx="10"/>
  <text x="40" y="130" class="section-title" fill="#9c27b0">📊 Portal Structure Analysis</text>
  
  <!-- Main Portal -->
  <rect x="40" y="150" width="260" height="140" fill="white" stroke="#9c27b0" stroke-width="1" rx="5"/>
  <text x="50" y="170" class="subsection" fill="#000">🏠 Main Portal</text>
  <text x="50" y="190" class="text" fill="#000">URL: open.toronto.ca</text>
  <text x="50" y="210" class="small" fill="#666">• Data Catalogue with search</text>
  <text x="50" y="225" class="small" fill="#666">• Dataset request system</text>
  <text x="50" y="240" class="small" fill="#666">• Blog and gallery sections</text>
  <text x="50" y="255" class="small" fill="#666">• 2025 Open Data Awards</text>
  <text x="50" y="270" class="small" fill="#666">• Contact: opendata@toronto.ca</text>

  <!-- Dashboard Portal -->
  <rect x="320" y="150" width="240" height="140" fill="white" stroke="#9c27b0" stroke-width="1" rx="5"/>
  <text x="330" y="170" class="subsection" fill="#000">📈 Dashboard Portal</text>
  <text x="330" y="190" class="text" fill="#000">toronto.ca/toronto-dashboard/</text>
  <text x="330" y="210" class="small" fill="#666">• Quarterly indicators</text>
  <text x="330" y="225" class="small" fill="#666">• CSV, XML, JSON exports</text>
  <text x="330" y="240" class="small" fill="#666">• 5 specialized dashboards</text>
  <text x="330" y="255" class="small" fill="#666">• Video tutorials</text>
  <text x="330" y="270" class="small" fill="#666">• Links to Open Data Portal</text>

  <!-- Navigation Flow -->
  <path d="M 170 320 Q 200 340 250 340 Q 300 340 330 320" fill="none" stroke="#9c27b0" stroke-width="3" marker-end="url(#arrow)"/>
  <text x="250" y="355" text-anchor="middle" class="small" fill="#9c27b0">Export Flow</text>

  <!-- Categories -->
  <rect x="40" y="310" width="520" height="230" fill="white" stroke="#9c27b0" stroke-width="1" rx="5"/>
  <text x="50" y="330" class="subsection" fill="#000">🏷️ Dashboard Categories (Current)</text>
  
  <rect x="60" y="340" width="100" height="60" fill="#e3f2fd" stroke="#2196f3" stroke-width="1" rx="3"/>
  <text x="70" y="355" class="small" fill="#000">Business &amp;</text>
  <text x="70" y="370" class="small" fill="#000">Economy</text>
  <text x="70" y="385" class="small" fill="#666">Economic indicators</text>

  <rect x="180" y="340" width="100" height="60" fill="#e8f5e8" stroke="#4caf50" stroke-width="1" rx="3"/>
  <text x="190" y="355" class="small" fill="#000">City Building &amp;</text>
  <text x="190" y="370" class="small" fill="#000">Mobility</text>
  <text x="190" y="385" class="small" fill="#666">Transportation data</text>

  <rect x="300" y="340" width="100" height="60" fill="#fff3e0" stroke="#ff9800" stroke-width="1" rx="3"/>
  <text x="310" y="355" class="small" fill="#000">Climate</text>
  <text x="310" y="370" class="small" fill="#000">Action</text>
  <text x="310" y="385" class="small" fill="#666">Environmental metrics</text>

  <rect x="420" y="340" width="100" height="60" fill="#fce4ec" stroke="#e91e63" stroke-width="1" rx="3"/>
  <text x="430" y="355" class="small" fill="#000">Housing &amp;</text>
  <text x="430" y="370" class="small" fill="#000">Homelessness</text>
  <text x="430" y="385" class="small" fill="#666">Housing statistics</text>

  <rect x="120" y="420" width="120" height="60" fill="#f3e5f5" stroke="#9c27b0" stroke-width="1" rx="3"/>
  <text x="130" y="435" class="small" fill="#000">Public Health &amp;</text>
  <text x="130" y="450" class="small" fill="#000">Community Safety</text>
  <text x="130" y="465" class="small" fill="#666">Health &amp; safety data</text>

  <rect x="260" y="420" width="120" height="60" fill="#e0f2f1" stroke="#00796b" stroke-width="1" rx="3"/>
  <text x="270" y="435" class="small" fill="#000">User Experience</text>
  <text x="270" y="450" class="small" fill="#000">Features</text>
  <text x="270" y="465" class="small" fill="#666">PDF reports, feedback</text>

  <!-- API Analysis Section -->
  <rect x="620" y="100" width="560" height="450" class="api-box" rx="10"/>
  <text x="640" y="130" class="section-title" fill="#4caf50">🔗 CKAN API Analysis</text>

  <!-- API Endpoint -->
  <rect x="640" y="150" width="520" height="80" fill="white" stroke="#4caf50" stroke-width="1" rx="5"/>
  <text x="650" y="170" class="subsection" fill="#000">✅ CONFIRMED: API Working</text>
  <text x="650" y="190" class="code" fill="#000">ckan0.cf.opendata.inter.prod-toronto.ca</text>
  <text x="650" y="210" class="text" fill="#4caf50" font-weight="bold">523 Datasets Active (Matches Our Data!)</text>

  <!-- Statistics -->
  <rect x="640" y="250" width="250" height="120" fill="white" stroke="#4caf50" stroke-width="1" rx="5"/>
  <text x="650" y="270" class="subsection" fill="#000">📊 Current Stats</text>
  <text x="650" y="290" class="small" fill="#000">• Total Datasets: 523</text>
  <text x="650" y="305" class="small" fill="#000">• Organization: City of Toronto</text>
  <text x="650" y="320" class="small" fill="#000">• Status: Active &amp; Approved</text>
  <text x="650" y="335" class="small" fill="#000">• Public Access: No auth required</text>
  <text x="650" y="350" class="small" fill="#000">• Response: JSON format</text>

  <!-- Popular Categories -->
  <rect x="910" y="250" width="250" height="120" fill="white" stroke="#4caf50" stroke-width="1" rx="5"/>
  <text x="920" y="270" class="subsection" fill="#000">🏷️ Popular Tags</text>
  <text x="920" y="290" class="small" fill="#000">• toronto, transportation</text>
  <text x="920" y="305" class="small" fill="#000">• cycling, library, paramedic</text>
  <text x="920" y="320" class="small" fill="#000">• Short-term rentals, permits</text>
  <text x="920" y="335" class="small" fill="#000">• Traffic volumes, facilities</text>
  <text x="920" y="350" class="small" fill="#000">• DineSafe, BodySafe inspections</text>

  <!-- Data Formats -->
  <rect x="640" y="390" width="520" height="80" fill="white" stroke="#4caf50" stroke-width="1" rx="5"/>
  <text x="650" y="410" class="subsection" fill="#000">📁 Supported Formats</text>
  <text x="650" y="430" class="small" fill="#000">CSV (most common) • SHP (spatial) • GeoJSON (geographic) • XML (structured) • JSON (web-friendly)</text>
  <text x="650" y="450" class="text" fill="#4caf50">All formats publicly accessible without authentication</text>

  <!-- User Journey Section -->
  <rect x="20" y="580" width="1160" height="300" class="highlight" rx="10"/>
  <text x="40" y="610" class="section-title" fill="#2196F3">🎯 Confirmed User Journey (2025)</text>

  <!-- Journey Steps -->
  <rect x="40" y="630" width="180" height="100" fill="white" stroke="#2196F3" stroke-width="2" rx="8"/>
  <text x="130" y="655" text-anchor="middle" class="subsection" fill="#000">1. Start</text>
  <text x="50" y="675" class="small" fill="#000">Toronto Dashboard</text>
  <text x="50" y="690" class="small" fill="#000">Quarterly indicators</text>
  <text x="50" y="705" class="small" fill="#000">5 specialized dashboards</text>

  <rect x="250" y="630" width="180" height="100" fill="white" stroke="#2196F3" stroke-width="2" rx="8"/>
  <text x="340" y="655" text-anchor="middle" class="subsection" fill="#000">2. Export</text>
  <text x="260" y="675" class="small" fill="#000">Redirects to Open Data</text>
  <text x="260" y="690" class="small" fill="#000">CSV, XML, JSON options</text>
  <text x="260" y="705" class="small" fill="#000">Download instructions</text>

  <rect x="460" y="630" width="180" height="100" fill="white" stroke="#2196F3" stroke-width="2" rx="8"/>
  <text x="550" y="655" text-anchor="middle" class="subsection" fill="#000">3. Browse</text>
  <text x="470" y="675" class="small" fill="#000">Catalogue search</text>
  <text x="470" y="690" class="small" fill="#000">523 datasets available</text>
  <text x="470" y="705" class="small" fill="#000">Filter by topic/format</text>

  <rect x="670" y="630" width="180" height="100" fill="white" stroke="#2196F3" stroke-width="2" rx="8"/>
  <text x="760" y="655" text-anchor="middle" class="subsection" fill="#000">4. Download</text>
  <text x="680" y="675" class="small" fill="#000">Multiple formats</text>
  <text x="680" y="690" class="small" fill="#000">Direct via CKAN</text>
  <text x="680" y="705" class="small" fill="#000">No authentication</text>

  <rect x="880" y="630" width="180" height="100" fill="white" stroke="#2196F3" stroke-width="2" rx="8"/>
  <text x="970" y="655" text-anchor="middle" class="subsection" fill="#000">5. API Access</text>
  <text x="890" y="675" class="small" fill="#000">Direct CKAN endpoints</text>
  <text x="890" y="690" class="small" fill="#000">JSON responses</text>
  <text x="890" y="705" class="small" fill="#000">Automation ready</text>

  <!-- Arrows -->
  <path d="M 220 680 L 250 680" fill="none" stroke="#2196F3" stroke-width="3" marker-end="url(#arrow)"/>
  <path d="M 430 680 L 460 680" fill="none" stroke="#2196F3" stroke-width="3" marker-end="url(#arrow)"/>
  <path d="M 640 680 L 670 680" fill="none" stroke="#2196F3" stroke-width="3" marker-end="url(#arrow)"/>
  <path d="M 850 680 L 880 680" fill="none" stroke="#2196F3" stroke-width="3" marker-end="url(#arrow)"/>

  <!-- Journey Validation -->
  <rect x="40" y="750" width="1120" height="120" fill="white" stroke="#4caf50" stroke-width="2" rx="8"/>
  <text x="60" y="780" class="subsection" fill="#4caf50">✅ Journey Validation Results</text>
  <text x="60" y="800" class="small" fill="#000">• Dashboard Portal: Active with quarterly updates and export functionality maintained</text>
  <text x="60" y="815" class="small" fill="#000">• Open Data Portal: Thriving with 2025 awards program and active community engagement</text>
  <text x="60" y="830" class="small" fill="#000">• API Endpoints: All working with same structure, 523 datasets confirmed</text>
  <text x="60" y="845" class="small" fill="#000">• Contact Information: Same email addresses still active (dataresearch@toronto.ca, opendata@toronto.ca)</text>
  <text x="60" y="860" class="small" fill="#4caf50" font-weight="bold">Our historical data collection approach remains 100% valid!</text>

  <!-- Key Findings Section -->
  <rect x="20" y="900" width="1160" height="350" class="data-box" rx="10"/>
  <text x="40" y="930" class="section-title" fill="#e91e63">🔍 Key Findings &amp; Changes Since Collection</text>

  <!-- Findings Grid -->
  <rect x="40" y="950" width="360" height="140" fill="white" stroke="#e91e63" stroke-width="1" rx="5"/>
  <text x="50" y="970" class="subsection" fill="#000">✅ What Stayed the Same</text>
  <text x="50" y="990" class="small" fill="#000">• Dataset count: 523 (exactly matches)</text>
  <text x="50" y="1005" class="small" fill="#000">• API structure: Same CKAN endpoints</text>
  <text x="50" y="1020" class="small" fill="#000">• Export formats: CSV, XML, JSON available</text>
  <text x="50" y="1035" class="small" fill="#000">• Dashboard categories: 5 main areas</text>
  <text x="50" y="1050" class="small" fill="#000">• Contact emails: Still active</text>
  <text x="50" y="1065" class="small" fill="#000">• Public access: No auth required</text>
  <text x="50" y="1080" class="small" fill="#4caf50" font-weight="bold">Data collection approach validated!</text>

  <rect x="420" y="950" width="360" height="140" fill="white" stroke="#e91e63" stroke-width="1" rx="5"/>
  <text x="430" y="970" class="subsection" fill="#000">📈 What Evolved</text>
  <text x="430" y="990" class="small" fill="#000">• UI/UX: Portal design refreshed</text>
  <text x="430" y="1005" class="small" fill="#000">• Awards program: 2025 Open Data Awards</text>
  <text x="430" y="1020" class="small" fill="#000">• Social presence: Active Twitter/X</text>
  <text x="430" y="1035" class="small" fill="#000">• GitHub integration: Open Data Toronto repo</text>
  <text x="430" y="1050" class="small" fill="#000">• Blog section: Regular updates</text>
  <text x="430" y="1065" class="small" fill="#000">• Gallery: Showcase community projects</text>
  <text x="430" y="1080" class="small" fill="#2196f3" font-weight="bold">Enhanced community engagement!</text>

  <rect x="800" y="950" width="360" height="140" fill="white" stroke="#e91e63" stroke-width="1" rx="5"/>
  <text x="810" y="970" class="subsection" fill="#000">⚠️ Notable Observations</text>
  <text x="810" y="990" class="small" fill="#000">• Dashboard dataset: "Retired" status</text>
  <text x="810" y="1005" class="small" fill="#000">• Organization structure: Single entity</text>
  <text x="810" y="1020" class="small" fill="#000">• Response limits: Some endpoints limited</text>
  <text x="810" y="1035" class="small" fill="#000">• Popular datasets: Still transportation focus</text>
  <text x="810" y="1050" class="small" fill="#000">• Format preference: CSV remains dominant</text>
  <text x="810" y="1065" class="small" fill="#000">• Rate limits: Not clearly specified</text>
  <text x="810" y="1080" class="small" fill="#ff9800" font-weight="bold">Minor structural changes noted</text>

  <!-- Live Examples Section -->
  <rect x="40" y="1110" width="1120" height="130" fill="white" stroke="#e91e63" stroke-width="1" rx="5"/>
  <text x="50" y="1130" class="subsection" fill="#000">🚀 Live API Examples (Working as of 2025-08-21)</text>
  <text x="50" y="1150" class="code" fill="#000">GET https://ckan0.cf.opendata.inter.prod-toronto.ca/api/3/action/package_list</text>
  <text x="50" y="1165" class="small" fill="#666">Returns: List of all 523 dataset IDs</text>
  <text x="50" y="1185" class="code" fill="#000">GET https://ckan0.cf.opendata.inter.prod-toronto.ca/api/3/action/organization_show?id=city-of-toronto</text>
  <text x="50" y="1200" class="small" fill="#666">Returns: Organization details with dataset count</text>
  <text x="50" y="1220" class="code" fill="#000">GET https://ckan0.cf.opendata.inter.prod-toronto.ca/dataset</text>
  <text x="50" y="1235" class="small" fill="#666">Returns: HTML catalogue page with search functionality</text>

  <!-- Recommendations Section -->
  <rect x="20" y="1270" width="1160" height="310" class="success-box" rx="10"/>
  <text x="40" y="1300" class="section-title" fill="#4caf50">💡 Documentation Enhancement Recommendations</text>

  <rect x="40" y="1320" width="360" height="120" fill="white" stroke="#4caf50" stroke-width="1" rx="5"/>
  <text x="50" y="1340" class="subsection" fill="#000">🖼️ Screenshot Comparison</text>
  <text x="50" y="1360" class="small" fill="#000">• Side-by-side: Our captures vs current</text>
  <text x="50" y="1375" class="small" fill="#000">• Highlight UI/UX evolution</text>
  <text x="50" y="1390" class="small" fill="#000">• Document current export process</text>
  <text x="50" y="1405" class="small" fill="#000">• Show new features (awards, gallery)</text>
  <text x="50" y="1420" class="small" fill="#4caf50">Validates our historical approach</text>

  <rect x="420" y="1320" width="360" height="120" fill="white" stroke="#4caf50" stroke-width="1" rx="5"/>
  <text x="430" y="1340" class="subsection" fill="#000">⚡ Live API Examples</text>
  <text x="430" y="1360" class="small" fill="#000">• Working curl commands</text>
  <text x="430" y="1375" class="small" fill="#000">• Real response structures</text>
  <text x="430" y="1390" class="small" fill="#000">• Format variations (CSV vs JSON)</text>
  <text x="430" y="1405" class="small" fill="#000">• Rate limit testing</text>
  <text x="430" y="1420" class="small" fill="#4caf50">Actionable integration examples</text>

  <rect x="800" y="1320" width="360" height="120" fill="white" stroke="#4caf50" stroke-width="1" rx="5"/>
  <text x="810" y="1340" class="subsection" fill="#000">👥 User Experience Flow</text>
  <text x="810" y="1360" class="small" fill="#000">• Current step-by-step process</text>
  <text x="810" y="1375" class="small" fill="#000">• Comparison with historical approach</text>
  <text x="810" y="1390" class="small" fill="#000">• New features impact analysis</text>
  <text x="810" y="1405" class="small" fill="#000">• Identify limitations/opportunities</text>
  <text x="810" y="1420" class="small" fill="#4caf50">Enhanced user journey mapping</text>

  <!-- Summary -->
  <rect x="40" y="1460" width="1120" height="100" fill="white" stroke="#4caf50" stroke-width="2" rx="8"/>
  <text x="60" y="1485" class="subsection" fill="#4caf50">✅ SUMMARY: Portal Analysis Complete</text>
  <text x="60" y="1505" class="text" fill="#000">Toronto's Open Data ecosystem remains robust and accessible. Our historical data collection methodology</text>
  <text x="60" y="1520" class="text" fill="#000">is validated by current portal status. The 523 dataset count match confirms our approach accuracy.</text>
  <text x="60" y="1535" class="text" fill="#000">Enhanced community features and maintained API structure provide excellent foundation for</text>
  <text x="60" y="1550" class="text" fill="#4caf50" font-weight="bold">automated data catalog solutions and ongoing research initiatives.</text>

  <!-- Arrow marker definition -->
  <defs>
    <marker id="arrow" markerWidth="10" markerHeight="10" refX="9" refY="3" orient="auto" markerUnits="strokeWidth">
      <path d="M0,0 L0,6 L9,3 z" fill="#2196F3"/>
    </marker>
  </defs>
</svg>