<?xml version="1.0" encoding="UTF-8"?>
<svg width="1400" height="900" xmlns="http://www.w3.org/2000/svg">
  <!-- Background -->
  <rect width="1400" height="900" fill="#f4f4f4"/>
  
  <!-- Header Bar -->
  <rect x="0" y="0" width="1400" height="80" fill="#2c3e50" stroke="#34495e" stroke-width="1"/>
  <text x="20" y="30" font-family="Arial, sans-serif" font-size="18" font-weight="bold" fill="#ffffff">SOX Compliance Management System</text>
  <text x="20" y="55" font-family="Arial, sans-serif" font-size="12" fill="#bdc3c7">Enterprise Dashboard v2.1</text>
  
  <!-- Header Right Section -->
  <rect x="1100" y="15" width="280" height="50" fill="#34495e" stroke="#4a5f7a" stroke-width="1" rx="5"/>
  <circle cx="1130" cy="40" r="15" fill="#3498db"/>
  <text x="1155" y="35" font-family="Arial, sans-serif" font-size="12" font-weight="bold" fill="#ffffff">Jennifer Brown</text>
  <text x="1155" y="50" font-family="Arial, sans-serif" font-size="10" fill="#bdc3c7">SOX Manager | Last Login: 2:30 PM</text>
  <rect x="1330" y="25" width="40" height="30" fill="#e74c3c" stroke="#c0392b" stroke-width="1" rx="3"/>
  <text x="1345" y="43" font-family="Arial, sans-serif" font-size="11" font-weight="bold" fill="#ffffff">Logout</text>
  
  <!-- Collapsible Sidebar -->
  <rect x="0" y="80" width="300" height="820" fill="#ecf0f1" stroke="#bdc3c7" stroke-width="1"/>
  
  <!-- Sidebar Header -->
  <rect x="0" y="80" width="300" height="40" fill="#34495e"/>
  <rect x="10" y="90" width="25" height="20" fill="#3498db" rx="3"/>
  <text x="17" y="102" font-family="Arial, sans-serif" font-size="12" fill="white">≡</text>
  <text x="45" y="102" font-family="Arial, sans-serif" font-size="14" font-weight="bold" fill="#ffffff">Navigation Menu</text>
  
  <!-- Navigation Items -->
  <text x="20" y="150" font-family="Arial, sans-serif" font-size="12" font-weight="bold" fill="#2c3e50">MAIN MODULES</text>
  
  <!-- Active Dashboard Item -->
  <rect x="10" y="165" width="280" height="35" fill="#3498db" stroke="#2980b9" stroke-width="1" rx="3"/>
  <rect x="15" y="170" width="20" height="15" fill="#ffffff" rx="2"/>
  <text x="45" y="185" font-family="Arial, sans-serif" font-size="12" font-weight="bold" fill="#ffffff">Dashboard Overview</text>
  <text x="260" y="185" font-family="Arial, sans-serif" font-size="10" fill="#ffffff">●</text>
  
  <!-- Organizations -->
  <rect x="10" y="210" width="280" height="35" fill="#ffffff" stroke="#bdc3c7" stroke-width="1" rx="3"/>
  <rect x="15" y="218" width="15" height="12" fill="#95a5a6" rx="2"/>
  <text x="45" y="230" font-family="Arial, sans-serif" font-size="12" fill="#2c3e50">Organizations</text>
  <rect x="250" y="218" width="30" height="15" fill="#e74c3c" rx="7"/>
  <text x="262" y="228" font-family="Arial, sans-serif" font-size="10" fill="#ffffff">5</text>
  
  <!-- Business Units -->
  <rect x="10" y="255" width="280" height="35" fill="#ffffff" stroke="#bdc3c7" stroke-width="1" rx="3"/>
  <rect x="15" y="263" width="15" height="12" fill="#95a5a6" rx="2"/>
  <text x="45" y="275" font-family="Arial, sans-serif" font-size="12" fill="#2c3e50">Business Units</text>
  <rect x="240" y="263" width="30" height="15" fill="#f39c12" rx="7"/>
  <text x="250" y="273" font-family="Arial, sans-serif" font-size="10" fill="#ffffff">12</text>
  
  <!-- Departments -->
  <rect x="10" y="300" width="280" height="35" fill="#ffffff" stroke="#bdc3c7" stroke-width="1" rx="3"/>
  <rect x="15" y="308" width="15" height="12" fill="#95a5a6" rx="2"/>
  <text x="45" y="320" font-family="Arial, sans-serif" font-size="12" fill="#2c3e50">Departments</text>
  <rect x="240" y="308" width="30" height="15" fill="#27ae60" rx="7"/>
  <text x="250" y="318" font-family="Arial, sans-serif" font-size="10" fill="#ffffff">38</text>
  
  <!-- Stakeholders -->
  <rect x="10" y="345" width="280" height="35" fill="#ffffff" stroke="#bdc3c7" stroke-width="1" rx="3"/>
  <rect x="15" y="353" width="15" height="12" fill="#95a5a6" rx="2"/>
  <text x="45" y="365" font-family="Arial, sans-serif" font-size="12" fill="#2c3e50">Stakeholders</text>
  <rect x="230" y="353" width="30" height="15" fill="#9b59b6" rx="7"/>
  <text x="240" y="363" font-family="Arial, sans-serif" font-size="10" fill="#ffffff">124</text>
  
  <!-- Controls -->
  <rect x="10" y="390" width="280" height="35" fill="#ffffff" stroke="#bdc3c7" stroke-width="1" rx="3"/>
  <rect x="15" y="398" width="15" height="12" fill="#95a5a6" rx="2"/>
  <text x="45" y="410" font-family="Arial, sans-serif" font-size="12" fill="#2c3e50">Controls Management</text>
  <rect x="230" y="398" width="30" height="15" fill="#e67e22" rx="7"/>
  <text x="240" y="408" font-family="Arial, sans-serif" font-size="10" fill="#ffffff">147</text>
  
  <!-- Processes -->
  <rect x="10" y="435" width="280" height="35" fill="#ffffff" stroke="#bdc3c7" stroke-width="1" rx="3"/>
  <rect x="15" y="443" width="15" height="12" fill="#95a5a6" rx="2"/>
  <text x="45" y="455" font-family="Arial, sans-serif" font-size="12" fill="#2c3e50">Process Management</text>
  <rect x="240" y="443" width="30" height="15" fill="#16a085" rx="7"/>
  <text x="250" y="453" font-family="Arial, sans-serif" font-size="10" fill="#ffffff">89</text>
  
  <!-- Reporting Section -->
  <text x="20" y="500" font-family="Arial, sans-serif" font-size="12" font-weight="bold" fill="#2c3e50">REPORTING &amp; TOOLS</text>
  
  <rect x="10" y="515" width="280" height="30" fill="#ffffff" stroke="#bdc3c7" stroke-width="1" rx="3"/>
  <text x="20" y="533" font-family="Arial, sans-serif" font-size="11" fill="#2c3e50">📊 Executive Reports</text>
  
  <rect x="10" y="555" width="280" height="30" fill="#ffffff" stroke="#bdc3c7" stroke-width="1" rx="3"/>
  <text x="20" y="573" font-family="Arial, sans-serif" font-size="11" fill="#2c3e50">📥 Export Templates</text>
  
  <rect x="10" y="595" width="280" height="30" fill="#ffffff" stroke="#bdc3c7" stroke-width="1" rx="3"/>
  <text x="20" y="613" font-family="Arial, sans-serif" font-size="11" fill="#2c3e50">⚙️ System Configuration</text>
  
  <!-- Main Content Area -->
  <rect x="310" y="80" width="1090" height="820" fill="#ffffff" stroke="#bdc3c7" stroke-width="1"/>
  
  <!-- Content Header -->
  <rect x="310" y="80" width="1090" height="50" fill="#ecf0f1" stroke="#bdc3c7" stroke-width="1"/>
  <text x="330" y="105" font-family="Arial, sans-serif" font-size="20" font-weight="bold" fill="#2c3e50">SOX Compliance Dashboard</text>
  <text x="330" y="125" font-family="Arial, sans-serif" font-size="12" fill="#7f8c8d">Comprehensive overview of compliance program status and key metrics</text>
  
  <!-- Breadcrumb -->
  <text x="1200" y="105" font-family="Arial, sans-serif" font-size="10" fill="#95a5a6">Home &gt; Dashboard &gt; Overview</text>
  <text x="1200" y="120" font-family="Arial, sans-serif" font-size="10" fill="#95a5a6">Last Updated: Jan 30, 2025 10:40 PM</text>
  
  <!-- KPI Dashboard Tiles -->
  <rect x="330" y="150" width="250" height="120" fill="#ffffff" stroke="#34495e" stroke-width="2" rx="5"/>
  <rect x="330" y="150" width="250" height="30" fill="#2c3e50"/>
  <text x="340" y="168" font-family="Arial, sans-serif" font-size="12" font-weight="bold" fill="#ffffff">COMPLIANCE SCORE</text>
  <text x="340" y="200" font-family="Arial, sans-serif" font-size="36" font-weight="bold" fill="#27ae60">94%</text>
  <rect x="340" y="220" width="80" height="15" fill="#27ae60" rx="7"/>
  <text x="345" y="230" font-family="Arial, sans-serif" font-size="9" fill="#ffffff">EXCELLENT</text>
  <text x="340" y="250" font-family="Arial, sans-serif" font-size="10" fill="#7f8c8d">Target: 90% | Status: Above Target</text>
  
  <rect x="600" y="150" width="250" height="120" fill="#ffffff" stroke="#34495e" stroke-width="2" rx="5"/>
  <rect x="600" y="150" width="250" height="30" fill="#2c3e50"/>
  <text x="610" y="168" font-family="Arial, sans-serif" font-size="12" font-weight="bold" fill="#ffffff">RISK ASSESSMENT</text>
  <rect x="610" y="190" width="180" height="12" fill="#27ae60" rx="6"/>
  <text x="615" y="200" font-family="Arial, sans-serif" font-size="9" fill="#ffffff">Low Risk: 132</text>
  <rect x="610" y="210" width="90" height="12" fill="#f39c12" rx="6"/>
  <text x="615" y="220" font-family="Arial, sans-serif" font-size="9" fill="#ffffff">Medium: 12</text>
  <rect x="610" y="230" width="30" height="12" fill="#e74c3c" rx="6"/>
  <text x="615" y="240" font-family="Arial, sans-serif" font-size="9" fill="#ffffff">3</text>
  <text x="650" y="240" font-family="Arial, sans-serif" font-size="10" fill="#e74c3c">High Risk Items</text>
  <text x="610" y="260" font-family="Arial, sans-serif" font-size="10" fill="#7f8c8d">Overall Risk: Low | 3 items need attention</text>
  
  <rect x="870" y="150" width="250" height="120" fill="#ffffff" stroke="#34495e" stroke-width="2" rx="5"/>
  <rect x="870" y="150" width="250" height="30" fill="#2c3e50"/>
  <text x="880" y="168" font-family="Arial, sans-serif" font-size="12" font-weight="bold" fill="#ffffff">CONTROLS STATUS</text>
  <text x="880" y="200" font-family="Arial, sans-serif" font-size="30" font-weight="bold" fill="#3498db">147</text>
  <text x="970" y="200" font-family="Arial, sans-serif" font-size="12" fill="#7f8c8d">Total</text>
  <text x="880" y="220" font-family="Arial, sans-serif" font-size="11" fill="#27ae60">✓ 144 Effective</text>
  <text x="880" y="235" font-family="Arial, sans-serif" font-size="11" fill="#f39c12">⚠ 3 Under Review</text>
  <text x="880" y="250" font-family="Arial, sans-serif" font-size="11" fill="#e74c3c">✗ 0 Deficient</text>
  <text x="880" y="265" font-family="Arial, sans-serif" font-size="10" fill="#7f8c8d">Effectiveness: 98%</text>
  
  <rect x="1140" y="150" width="250" height="120" fill="#ffffff" stroke="#34495e" stroke-width="2" rx="5"/>
  <rect x="1140" y="150" width="250" height="30" fill="#2c3e50"/>
  <text x="1150" y="168" font-family="Arial, sans-serif" font-size="12" font-weight="bold" fill="#ffffff">PERIOD STATUS</text>
  <text x="1150" y="200" font-family="Arial, sans-serif" font-size="24" font-weight="bold" fill="#2c3e50">Q4 2025</text>
  <rect x="1150" y="210" width="180" height="8" fill="#ecf0f1" rx="4"/>
  <rect x="1150" y="210" width="160" height="8" fill="#3498db" rx="4"/>
  <text x="1150" y="235" font-family="Arial, sans-serif" font-size="11" fill="#3498db">89% Complete</text>
  <text x="1150" y="250" font-family="Arial, sans-serif" font-size="10" fill="#7f8c8d">12 tests remaining</text>
  <text x="1150" y="265" font-family="Arial, sans-serif" font-size="10" fill="#e74c3c">Due: January 15, 2026</text>
  
  <!-- Data Grid Section -->
  <rect x="330" y="290" width="1060" height="300" fill="#ffffff" stroke="#bdc3c7" stroke-width="1" rx="5"/>
  <rect x="330" y="290" width="1060" height="35" fill="#34495e"/>
  <text x="340" y="310" font-family="Arial, sans-serif" font-size="14" font-weight="bold" fill="#ffffff">ORGANIZATIONAL STRUCTURE OVERVIEW</text>
  
  <!-- Organizations Table -->
  <text x="350" y="345" font-family="Arial, sans-serif" font-size="12" font-weight="bold" fill="#2c3e50">Organizations</text>
  <rect x="340" y="355" width="500" height="220" fill="#f8f9fa" stroke="#dee2e6" stroke-width="1"/>
  
  <!-- Table Header -->
  <rect x="340" y="355" width="500" height="25" fill="#6c757d"/>
  <text x="350" y="370" font-family="Arial, sans-serif" font-size="10" font-weight="bold" fill="#ffffff">ORGANIZATION NAME</text>
  <text x="600" y="370" font-family="Arial, sans-serif" font-size="10" font-weight="bold" fill="#ffffff">STATUS</text>
  <text x="700" y="370" font-family="Arial, sans-serif" font-size="10" font-weight="bold" fill="#ffffff">CONTROLS</text>
  <text x="780" y="370" font-family="Arial, sans-serif" font-size="10" font-weight="bold" fill="#ffffff">ACTIONS</text>
  
  <!-- Table Rows -->
  <rect x="340" y="380" width="500" height="30" fill="#ffffff" stroke="#dee2e6" stroke-width="1"/>
  <text x="350" y="398" font-family="Arial, sans-serif" font-size="11" fill="#2c3e50">Acme Corporation</text>
  <rect x="600" y="385" width="60" height="20" fill="#d4edda" stroke="#c3e6cb" stroke-width="1" rx="10"/>
  <text x="615" y="397" font-family="Arial, sans-serif" font-size="9" fill="#155724">Compliant</text>
  <text x="710" y="398" font-family="Arial, sans-serif" font-size="11" fill="#6c757d">45</text>
  <rect x="780" y="385" width="50" height="20" fill="#007bff" rx="3"/>
  <text x="795" y="397" font-family="Arial, sans-serif" font-size="9" fill="#ffffff">View</text>
  
  <rect x="340" y="410" width="500" height="30" fill="#f8f9fa" stroke="#dee2e6" stroke-width="1"/>
  <text x="350" y="428" font-family="Arial, sans-serif" font-size="11" fill="#2c3e50">Global Industries Ltd</text>
  <rect x="600" y="415" width="60" height="20" fill="#fff3cd" stroke="#ffeaa7" stroke-width="1" rx="10"/>
  <text x="615" y="427" font-family="Arial, sans-serif" font-size="9" fill="#856404">Review</text>
  <text x="710" y="428" font-family="Arial, sans-serif" font-size="11" fill="#6c757d">32</text>
  <rect x="780" y="415" width="50" height="20" fill="#007bff" rx="3"/>
  <text x="795" y="427" font-family="Arial, sans-serif" font-size="9" fill="#ffffff">View</text>
  
  <rect x="340" y="440" width="500" height="30" fill="#ffffff" stroke="#dee2e6" stroke-width="1"/>
  <text x="350" y="458" font-family="Arial, sans-serif" font-size="11" fill="#2c3e50">TechStart Inc</text>
  <rect x="600" y="445" width="60" height="20" fill="#d4edda" stroke="#c3e6cb" stroke-width="1" rx="10"/>
  <text x="615" y="457" font-family="Arial, sans-serif" font-size="9" fill="#155724">Compliant</text>
  <text x="710" y="458" font-family="Arial, sans-serif" font-size="11" fill="#6c757d">28</text>
  <rect x="780" y="445" width="50" height="20" fill="#007bff" rx="3"/>
  <text x="795" y="457" font-family="Arial, sans-serif" font-size="9" fill="#ffffff">View</text>
  
  <rect x="340" y="470" width="500" height="30" fill="#f8f9fa" stroke="#dee2e6" stroke-width="1"/>
  <text x="350" y="488" font-family="Arial, sans-serif" font-size="11" fill="#2c3e50">Manufacturing Corp</text>
  <rect x="600" y="475" width="60" height="20" fill="#d4edda" stroke="#c3e6cb" stroke-width="1" rx="10"/>
  <text x="615" y="487" font-family="Arial, sans-serif" font-size="9" fill="#155724">Compliant</text>
  <text x="710" y="488" font-family="Arial, sans-serif" font-size="11" fill="#6c757d">23</text>
  <rect x="780" y="475" width="50" height="20" fill="#007bff" rx="3"/>
  <text x="795" y="487" font-family="Arial, sans-serif" font-size="9" fill="#ffffff">View</text>
  
  <rect x="340" y="500" width="500" height="30" fill="#ffffff" stroke="#dee2e6" stroke-width="1"/>
  <text x="350" y="518" font-family="Arial, sans-serif" font-size="11" fill="#2c3e50">Services LLC</text>
  <rect x="600" y="505" width="60" height="20" fill="#d4edda" stroke="#c3e6cb" stroke-width="1" rx="10"/>
  <text x="615" y="517" font-family="Arial, sans-serif" font-size="9" fill="#155724">Compliant</text>
  <text x="710" y="518" font-family="Arial, sans-serif" font-size="11" fill="#6c757d">19</text>
  <rect x="780" y="505" width="50" height="20" fill="#007bff" rx="3"/>
  <text x="795" y="517" font-family="Arial, sans-serif" font-size="9" fill="#ffffff">View</text>
  
  <!-- Controls Summary -->
  <text x="870" y="345" font-family="Arial, sans-serif" font-size="12" font-weight="bold" fill="#2c3e50">Top Controls by Risk</text>
  <rect x="860" y="355" width="520" height="220" fill="#f8f9fa" stroke="#dee2e6" stroke-width="1"/>
  
  <rect x="860" y="355" width="520" height="25" fill="#6c757d"/>
  <text x="870" y="370" font-family="Arial, sans-serif" font-size="10" font-weight="bold" fill="#ffffff">CONTROL ID</text>
  <text x="980" y="370" font-family="Arial, sans-serif" font-size="10" font-weight="bold" fill="#ffffff">DESCRIPTION</text>
  <text x="1200" y="370" font-family="Arial, sans-serif" font-size="10" font-weight="bold" fill="#ffffff">RISK</text>
  <text x="1300" y="370" font-family="Arial, sans-serif" font-size="10" font-weight="bold" fill="#ffffff">STATUS</text>
  
  <rect x="860" y="380" width="520" height="30" fill="#ffffff" stroke="#dee2e6" stroke-width="1"/>
  <text x="870" y="398" font-family="Arial, sans-serif" font-size="10" fill="#2c3e50">C-147</text>
  <text x="980" y="398" font-family="Arial, sans-serif" font-size="10" fill="#2c3e50">Financial Close Process</text>
  <rect x="1200" y="385" width="40" height="20" fill="#f8d7da" stroke="#f5c6cb" stroke-width="1" rx="10"/>
  <text x="1210" y="397" font-family="Arial, sans-serif" font-size="9" fill="#721c24">High</text>
  <text x="1300" y="398" font-family="Arial, sans-serif" font-size="10" fill="#ffc107">Review</text>
  
  <rect x="860" y="410" width="520" height="30" fill="#f8f9fa" stroke="#dee2e6" stroke-width="1"/>
  <text x="870" y="428" font-family="Arial, sans-serif" font-size="10" fill="#2c3e50">C-089</text>
  <text x="980" y="428" font-family="Arial, sans-serif" font-size="10" fill="#2c3e50">Access Management</text>
  <rect x="1200" y="415" width="40" height="20" fill="#fff3cd" stroke="#ffeaa7" stroke-width="1" rx="10"/>
  <text x="1205" y="427" font-family="Arial, sans-serif" font-size="9" fill="#856404">Medium</text>
  <text x="1300" y="428" font-family="Arial, sans-serif" font-size="10" fill="#28a745">Effective</text>
  
  <rect x="860" y="440" width="520" height="30" fill="#ffffff" stroke="#dee2e6" stroke-width="1"/>
  <text x="870" y="458" font-family="Arial, sans-serif" font-size="10" fill="#2c3e50">C-032</text>
  <text x="980" y="458" font-family="Arial, sans-serif" font-size="10" fill="#2c3e50">Change Management</text>
  <rect x="1200" y="445" width="40" height="20" fill="#f8d7da" stroke="#f5c6cb" stroke-width="1" rx="10"/>
  <text x="1210" y="457" font-family="Arial, sans-serif" font-size="9" fill="#721c24">High</text>
  <text x="1300" y="458" font-family="Arial, sans-serif" font-size="10" fill="#ffc107">Review</text>
  
  <!-- Action Buttons Section -->
  <rect x="330" y="610" width="1060" height="80" fill="#ecf0f1" stroke="#bdc3c7" stroke-width="1" rx="5"/>
  <text x="350" y="635" font-family="Arial, sans-serif" font-size="14" font-weight="bold" fill="#2c3e50">Quick Actions &amp; Tools</text>
  
  <rect x="350" y="650" width="150" height="30" fill="#3498db" stroke="#2980b9" stroke-width="1" rx="3"/>
  <text x="385" y="668" font-family="Arial, sans-serif" font-size="11" font-weight="bold" fill="#ffffff">📊 Generate Report</text>
  
  <rect x="520" y="650" width="150" height="30" fill="#27ae60" stroke="#229954" stroke-width="1" rx="3"/>
  <text x="560" y="668" font-family="Arial, sans-serif" font-size="11" font-weight="bold" fill="#ffffff">📥 Export Data</text>
  
  <rect x="690" y="650" width="150" height="30" fill="#e67e22" stroke="#d35400" stroke-width="1" rx="3"/>
  <text x="720" y="668" font-family="Arial, sans-serif" font-size="11" font-weight="bold" fill="#ffffff">📋 View Templates</text>
  
  <rect x="860" y="650" width="150" height="30" fill="#9b59b6" stroke="#8e44ad" stroke-width="1" rx="3"/>
  <text x="895" y="668" font-family="Arial, sans-serif" font-size="11" font-weight="bold" fill="#ffffff">⚙️ Configuration</text>
  
  <rect x="1030" y="650" width="150" height="30" fill="#34495e" stroke="#2c3e50" stroke-width="1" rx="3"/>
  <text x="1070" y="668" font-family="Arial, sans-serif" font-size="11" font-weight="bold" fill="#ffffff">🔄 Refresh Data</text>
  
  <rect x="1200" y="650" width="150" height="30" fill="#e74c3c" stroke="#c0392b" stroke-width="1" rx="3"/>
  <text x="1235" y="668" font-family="Arial, sans-serif" font-size="11" font-weight="bold" fill="#ffffff">📧 Send Alert</text>
  
  <!-- Status Bar -->
  <rect x="330" y="850" width="1060" height="40" fill="#2c3e50"/>
  <text x="350" y="870" font-family="Arial, sans-serif" font-size="10" fill="#bdc3c7">System Status: Online | Database: Connected | Last Sync: 10:40 PM | Users: 24 Active</text>
  <text x="1200" y="870" font-family="Arial, sans-serif" font-size="10" fill="#bdc3c7">© 2025 SOX Platform v2.1</text>
</svg>